<svg width="183" height="48" viewBox="0 0 183 48" fill="none" xmlns="http://www.w3.org/2000/svg">
<path d="M24.7275 0L32.98 14.6414L49.4549 17.9656L38.0803 30.3386L40.0099 47.0344L24.7275 40.04L9.44505 47.0344L11.3746 30.3386L0 17.9656L16.475 14.6414L24.7275 0Z" fill="#2660F5"/>
<path d="M145.186 41.3699V33.4949H154.402V35.5105H148.256V36.5183H154.402V38.3406H148.256V39.3484H154.402V41.3699H145.186Z" fill="black"/>
<path d="M133.666 33.4889H141.254C142.877 33.4714 144.254 34.8366 144.23 36.4655C144.23 37.0573 144.072 37.5964 143.756 38.0768C143.445 38.5514 143.029 38.9147 142.514 39.155L144.23 41.3639H140.961L139.479 39.4421H136.736V41.3639H133.666V33.4889ZM140.48 35.7917H136.736V37.1335H140.48C140.668 37.1335 140.826 37.069 140.955 36.9401C141.09 36.8053 141.154 36.6471 141.154 36.4655C141.154 36.0905 140.855 35.7917 140.48 35.7917Z" fill="black"/>
<path d="M127.379 35.7742L126.295 38.1003H128.457L127.379 35.7742ZM121.326 41.3699L125.551 33.4949H129.201L133.426 41.3699H129.969L129.348 40.0222H125.404L124.783 41.3699H121.326Z" fill="black"/>
<path d="M118.08 38.4812L119.908 33.4949H123.365L119.908 41.3699H116.258L114.529 37.4324L112.801 41.3699H109.15L105.693 33.4949H109.15L110.973 38.4812L112.801 33.4949H116.258L118.08 38.4812Z" fill="black"/>
<path d="M101.809 41.3699H98.7383V35.991H95.0879V33.4949H105.459V35.991H101.809V41.3699Z" fill="black"/>
<path d="M84.3652 41.3699V33.4949H93.9688V35.991H87.4355V36.9519H93.2012V39.2546H87.4355V41.3699H84.3652Z" fill="black"/>
<path d="M78.0723 33.2898C81.0372 33.2898 83.4454 34.157 83.4454 37.1335V37.7078C83.4571 40.6843 81.0313 41.5457 78.0723 41.5515C75.1075 41.5457 72.6817 40.6843 72.6934 37.7078V37.1335C72.6817 34.1511 75.1075 33.2957 78.0723 33.2898ZM80.375 37.5144V37.321C80.3926 36.0378 79.3262 35.8035 78.0723 35.7859C76.8125 35.8035 75.7461 36.0378 75.7637 37.321V37.5144C75.7461 38.8035 76.8125 39.0378 78.0723 39.0554C79.3262 39.0378 80.3926 38.8035 80.375 37.5144Z" fill="black"/>
<path d="M64.6719 36.0789C64.6719 36.4246 65.627 36.4714 66.8633 36.53C69.0606 36.6414 72.1484 36.7937 72.1426 38.7683C72.1426 41.0183 69.5645 41.5515 66.7988 41.5515C64.0391 41.5457 61.7481 41.2117 61.4551 38.7683H64.6719C65.0234 39.3777 65.8379 39.5359 66.7988 39.5359C67.7539 39.5359 68.9258 39.3777 68.9258 38.7683C68.9258 38.4226 67.9707 38.3699 66.7344 38.3113C64.5371 38.2 61.4492 38.0476 61.4551 36.0789C61.4551 33.8289 64.0332 33.2898 66.7988 33.2898C69.5586 33.3074 71.8496 33.6179 72.1426 36.0789H68.9258C68.5742 35.4578 67.7598 35.3113 66.7988 35.3113C65.8438 35.3113 64.6719 35.4519 64.6719 36.0789Z" fill="black"/>
<path d="M178.438 27.3699H175.367V21.991H171.717V19.4949H182.088V21.991H178.438V27.3699Z" fill="black"/>
<path d="M167.574 23.655V19.4832H170.65V27.3582H167.193L162.963 22.5476V27.3582H159.893V19.4832H164.117L167.574 23.655Z" fill="black"/>
<path d="M149.041 27.3699V19.4949H158.258V21.5105H152.111V22.5183H158.258V24.3406H152.111V25.3484H158.258V27.3699H149.041Z" fill="black"/>
<path d="M133.42 27.3582V19.4832H137.264L140.334 23.4207L143.41 19.4832H147.248V27.3582H144.178V23.157L141.102 27.3582H139.566L136.49 23.157V27.3582H133.42Z" fill="black"/>
<path d="M122.568 27.3699V19.4949H131.785V21.5105H125.639V22.5183H131.785V24.3406H125.639V25.3484H131.785V27.3699H122.568Z" fill="black"/>
<path d="M115.807 24.3816V23.0339H121.156V27.5515H119.621L119.469 26.3269C118.555 27.2292 117.166 27.5515 115.83 27.5515C112.865 27.5398 110.439 26.6843 110.451 23.7078V23.1335C110.439 20.1511 112.865 19.2957 115.83 19.2898C118.561 19.2898 120.811 20.0339 121.156 22.4597H117.893C117.699 22.196 117.418 22.0203 117.055 21.9265C116.691 21.8328 116.281 21.7859 115.83 21.7859C114.57 21.8035 113.504 22.0378 113.522 23.321V23.5144C113.504 24.8093 114.57 25.032 115.83 25.0496C117.043 25.0496 117.816 24.9792 118.279 24.3816H115.807Z" fill="black"/>
<path d="M104.902 21.7742L103.818 24.1003H105.98L104.902 21.7742ZM98.8496 27.3699L103.074 19.4949H106.725L110.949 27.3699H107.492L106.871 26.0222H102.928L102.307 27.3699H98.8496Z" fill="black"/>
<path d="M95.5391 23.655V19.4832H98.6152V27.3582H95.1582L90.9277 22.5476V27.3582H87.8574V19.4832H92.082L95.5391 23.655Z" fill="black"/>
<path d="M81.5703 21.7742L80.4863 24.1003H82.6484L81.5703 21.7742ZM75.5176 27.3699L79.7422 19.4949H83.3926L87.6172 27.3699H84.1602L83.5391 26.0222H79.5957L78.9746 27.3699H75.5176Z" fill="black"/>
<path d="M61.4551 27.3582V19.4832H65.2988L68.3691 23.4207L71.4453 19.4832H75.2832V27.3582H72.2129V23.157L69.1367 27.3582H67.6016L64.5254 23.157V27.3582H61.4551Z" fill="black"/>
<path d="M124.461 5.49487L126.764 8.31909L129.072 5.49487H132.717L128.299 10.6804V13.3699H125.229V10.6804L120.811 5.49487H124.461Z" fill="#2660F5"/>
<path d="M110.955 5.48894H118.543C120.166 5.47136 121.543 6.83659 121.52 8.4655C121.52 9.0573 121.361 9.59636 121.045 10.0768C120.734 10.5514 120.318 10.9147 119.803 11.155L121.52 13.3639H118.25L116.768 11.4421H114.025V13.3639H110.955V5.48894ZM117.77 7.79167H114.025V9.13347H117.77C117.957 9.13347 118.115 9.06902 118.244 8.94011C118.379 8.80534 118.443 8.64714 118.443 8.4655C118.443 8.0905 118.145 7.79167 117.77 7.79167Z" fill="#2660F5"/>
<path d="M104.668 7.77417L103.584 10.1003H105.746L104.668 7.77417ZM98.6152 13.3699L102.84 5.49487H106.49L110.715 13.3699H107.258L106.637 12.0222H102.693L102.072 13.3699H98.6152Z" fill="#2660F5"/>
<path d="M87.8105 5.48894H95.3984C97.0215 5.47136 98.3984 6.83659 98.375 8.4655C98.375 9.0573 98.2168 9.59636 97.9004 10.0768C97.5898 10.5514 97.1738 10.9147 96.6582 11.155L98.375 13.3639H95.1055L93.623 11.4421H90.8809V13.3639H87.8105V5.48894ZM94.625 7.79167H90.8809V9.13347H94.625C94.8125 9.13347 94.9707 9.06902 95.0996 8.94011C95.2344 8.80534 95.2988 8.64714 95.2988 8.4655C95.2988 8.0905 95 7.79167 94.625 7.79167Z" fill="#2660F5"/>
<path d="M79.4902 11.4949H83.6211C83.8848 11.4949 84.1016 11.2312 84.1016 10.9676C84.1016 10.7039 83.8848 10.4402 83.6211 10.4402H79.4902V11.4949ZM83.0469 7.36405H79.4902V8.42459H83.0469C83.3105 8.42459 83.5273 8.15506 83.5273 7.89139C83.5273 7.62772 83.3105 7.36405 83.0469 7.36405ZM85.4961 9.29764C86.3867 9.58475 86.9844 10.2644 86.9844 11.2547C87.002 12.6316 85.8418 13.3699 84.4883 13.3699H76.4199V5.49491H83.9082C85.2734 5.48905 86.4277 6.23319 86.4102 7.60428C86.4102 8.36014 86.0586 8.94022 85.4961 9.29764Z" fill="#2660F5"/>
<path d="M71.7207 5.48315H74.791V13.3582H71.7207V5.48315Z" fill="#2660F5"/>
<path d="M61.4551 5.48315H64.5254V10.8621H70.6719V13.3582H61.4551V5.48315Z" fill="#2660F5"/>
</svg>
